<svg xmlns="http://www.w3.org/2000/svg" xmlns:xlink="http://www.w3.org/1999/xlink" viewBox="0 0 244.76 183.3"><defs><style>.cls-1{fill:url(#Nueva_muestra_de_degradado_1);}.cls-2{fill:url(#Degradado_sin_nombre_118);}.cls-3,.cls-4,.cls-5,.cls-6,.cls-7{stroke:#000;stroke-miterlimit:10;}.cls-3{stroke-width:2px;fill:url(#Degradado_sin_nombre_40);}.cls-4{fill:url(#Degradado_sin_nombre_78);}.cls-5{fill:none;}.cls-6{fill:url(#Nueva_muestra_de_degradado_1-2);}.cls-7{fill:url(#Nueva_muestra_de_degradado_1-3);}</style><linearGradient id="Nueva_muestra_de_degradado_1" x1="1.97" y1="144.11" x2="197" y2="144.11" gradientUnits="userSpaceOnUse"><stop offset="0" stop-color="#5a54ff"/><stop offset="0.07" stop-color="#5a60ff"/><stop offset="0.22" stop-color="#5a73ff"/><stop offset="0.37" stop-color="#5a7dff"/><stop offset="0.53" stop-color="#5a81ff"/><stop offset="0.68" stop-color="#5a7eff"/><stop offset="0.81" stop-color="#5a73ff"/><stop offset="0.93" stop-color="#5a62ff"/><stop offset="1" stop-color="#5a54ff"/></linearGradient><linearGradient id="Degradado_sin_nombre_118" x1="132.46" y1="83.46" x2="217.72" y2="-1.79" gradientUnits="userSpaceOnUse"><stop offset="0" stop-color="#ff0"/><stop offset="0.26" stop-color="#fffd00"/><stop offset="0.4" stop-color="#fff500"/><stop offset="0.52" stop-color="#ffe700"/><stop offset="0.62" stop-color="#ffd300"/><stop offset="0.71" stop-color="#ffba00"/><stop offset="0.8" stop-color="#ff9a00"/><stop offset="0.88" stop-color="#ff7500"/><stop offset="0.95" stop-color="#ff4b00"/><stop offset="1" stop-color="#ff2a00"/></linearGradient><linearGradient id="Degradado_sin_nombre_40" x1="23.9" y1="94.11" x2="104.42" y2="13.59" gradientUnits="userSpaceOnUse"><stop offset="0.24" stop-color="#ff2a00"/><stop offset="0.25" stop-color="#ff2e00"/><stop offset="0.29" stop-color="#ff5900"/><stop offset="0.33" stop-color="#ff8000"/><stop offset="0.38" stop-color="#ffa300"/><stop offset="0.44" stop-color="#ffc000"/><stop offset="0.5" stop-color="gold"/><stop offset="0.57" stop-color="#ffe900"/><stop offset="0.65" stop-color="#fff600"/><stop offset="0.76" stop-color="#fffd00"/><stop offset="1" stop-color="#ff0"/></linearGradient><linearGradient id="Degradado_sin_nombre_78" x1="105.63" y1="91.88" x2="203.3" y2="33.2" gradientUnits="userSpaceOnUse"><stop offset="0.1" stop-color="#ff2a00"/><stop offset="0.12" stop-color="#ff3c00"/><stop offset="0.23" stop-color="#ff8100"/><stop offset="0.33" stop-color="#ffb700"/><stop offset="0.42" stop-color="#ffde00"/><stop offset="0.49" stop-color="#fff600"/><stop offset="0.53" stop-color="#ff0"/><stop offset="0.6" stop-color="#ffce00"/><stop offset="0.72" stop-color="#ff8900"/><stop offset="0.82" stop-color="#f50"/><stop offset="0.9" stop-color="#ff3600"/><stop offset="0.94" stop-color="#ff2a00"/></linearGradient><linearGradient id="Nueva_muestra_de_degradado_1-2" x1="90" y1="110.21" x2="169.36" y2="110.21" xlink:href="#Nueva_muestra_de_degradado_1"/><linearGradient id="Nueva_muestra_de_degradado_1-3" x1="169.36" y1="119.98" x2="244.5" y2="119.98" xlink:href="#Nueva_muestra_de_degradado_1"/></defs><title>logo_ico</title><g id="linea_inf"><path class="cls-1" d="M19.37,103.28c-5.5,8.27-33.62,53.54-4.18,75.06h0c.07,0,66.49,36.34,181.79-61,.3-.25-2.45,1.91-2.77,2.13C170.45,136,78.88,195.85,31.44,169.06h0c-.25-.06-37.83-9.32-11.84-65.63A.13.13,0,0,0,19.37,103.28Z" transform="translate(-1.97 -1.7)"/></g><g id="linea_sup"><path class="cls-2" d="M227.86,78s27.37-53-26.36-64c0,0-46.63-10-111.5,27V36S147.78-2,202.52,2C202.52,2,275.5,8,227.86,78Z" transform="translate(-1.97 -1.7)"/></g><g id="M"><path class="cls-3" d="M15.37,117.66s14-48.32-5.37-76.24L40.06,28.54V39.27L62.6,28.54V39.27L87.29,28.54s15,55.83-22.54,91.27c0,0,11.8-44,0-65.5,0,0,5.36,35.43-25.77,65.5,0,0,10.74-38.66,2.15-63.36C41.13,56.45,42.2,99.4,15.37,117.66Z" transform="translate(-1.97 -1.7)"/></g><g id="a"><path class="cls-4" d="M196.85,41.76l9.66-3.22H180.75L185,40.68s-15,6.45-11.8,18.26h-15s12.88,7.51,2.14,18.25c0,0-30-19.33,9.67-36.51,0,0-19.33-5.36-34.35,12.89,0,0,0-5.37-8.59-15,0,0-10.74,3.22-16.1,8.59l4.29,2.14s-9.66,7.52-11.81,11.82c0,0-6.44-2.15-7.51-1.08s-2.15,9.67-2.15,9.67l5.37,1.07L98.1,79.34l14,3.22V70.75l15-7.52,2.14,18.26s4.3-3.22,6.45-16.11c0,0,4.29,19.33,31.12,17.18l2.15-2.15-3.22-1.07s11.81-2.15,10.74-6.44c0,0,4.29,7.51,11.8,6.44l-6.44,3.22,11.81-2.15,3.22-1.07S230.13,61.09,196.85,41.76ZM116.34,61.09s2.15-7.52,4.3-8.59,7.51,6.44,7.51,6.44C117.42,63.23,116.34,61.09,116.34,61.09Zm76.22,14c-15-18.25,0-30.06,0-30.06C204.37,61.09,192.56,75,192.56,75Z" transform="translate(-1.97 -1.7)"/><path class="cls-5" d="M197.39,41.22,207.05,38H181.29l4.29,2.15s-15,6.44-11.81,18.25h-15s12.89,7.52,2.15,18.25c0,0-30.06-19.32,9.66-36.5,0,0-19.32-5.37-34.35,12.88,0,0,0-5.37-8.59-15,0,0-10.73,3.22-16.1,8.59l4.3,2.15S106.15,56.25,104,60.55c0,0-6.44-2.15-7.52-1.08s-2.14,9.67-2.14,9.67l5.37,1.07L98.63,78.8l14,3.22V70.21l15-7.51L129.76,81s4.3-3.22,6.44-16.11c0,0,4.3,19.33,31.13,17.18l2.15-2.14-3.22-1.08s11.81-2.15,10.73-6.44c0,0,4.3,7.52,11.81,6.44L182.36,82l11.81-2.14,3.22-1.08S230.66,60.55,197.39,41.22ZM116.88,60.55S119,53,121.17,52s7.52,6.44,7.52,6.44C118,62.7,116.88,60.55,116.88,60.55Zm76.21,14c-15-18.26,0-30.07,0-30.07C204.9,60.55,193.09,74.51,193.09,74.51Z" transform="translate(-1.97 -1.7)"/></g><g id="a-2" data-name="a"><path class="cls-6" d="M169.36,93.83c-11.81,4.3-25.76,0-25.76,0l3.22,5.37c-3.22,1.08-3.22,6.45-3.22,6.45-12.31,3.35-14.41,10.5-13.6,16.58l-.36-.48c-22.54,10.74-26.83-4.29-26.83-4.29-4.3-18.26,23.61-14,23.61-14C121.06,81,101.73,87.39,101.73,87.39c12.88,2.15,14,8.59,14,8.59C82.41,94.91,91,120.68,91,120.68c10.73,23.62,39.72,6.44,39.72,6.44l.45-.23a27.79,27.79,0,0,0,2.77,5.6c11.8,5.37,16.1-6.44,16.1-6.44l-2.15,1.07c-10.73,7.52-9.66-9.66-9.66-9.66l16.1,8.59-3.22,4.29h18.25v-2.15C159.7,112.09,169.36,93.83,169.36,93.83Zm-14,20.41-9.66-4.3,9.66-4.29Z" transform="translate(-1.97 -1.7)"/></g><g id="r"><path class="cls-7" d="M203.71,116.38l-2.15-1.07s16.1-12.89,0-22.55c0,0-3.22,0-3.22,2.15H181.17L179,98.13,178,94.91s-7.52-1.08-7.52,0V96l3.22,3.22v24.7l-4.29,6.44v1.08l19.32,1.07s1.07-1.07,0-3.22l-1.07-4.3,5.37,2.15s22.54,32.21,51.52,15C244.5,142.15,203.71,146.45,203.71,116.38Zm-8.59-6.44s-7.51,6.44-7.51,7.52v-14C203.71,102.42,195.12,109.94,195.12,109.94Z" transform="translate(-1.97 -1.7)"/></g></svg>