<svg xmlns="http://www.w3.org/2000/svg" xmlns:xlink="http://www.w3.org/1999/xlink" viewBox="0 0 248.76 183.3"><defs><style>.cls-1{fill:url(#Nueva_muestra_de_degradado_1);}.cls-2{fill:url(#Degradado_sin_nombre_118);}.cls-3,.cls-4,.cls-5,.cls-6,.cls-7,.cls-8{stroke:#000;stroke-miterlimit:10;}.cls-3{stroke-width:2px;fill:url(#Degradado_sin_nombre_40);}.cls-4{fill:url(#Degradado_sin_nombre_78);}.cls-5{fill:none;}.cls-6{fill:url(#Nueva_muestra_de_degradado_1-2);}.cls-7{fill:url(#Nueva_muestra_de_degradado_1-3);}.cls-8{font-size:12px;fill:#fff;stroke-width:0.25px;font-family:FranklinGothic-HeavyItalic, Franklin Gothic Heavy;font-weight:800;font-style:italic;}.cls-9{letter-spacing:-0.01em;}.cls-10{letter-spacing:-0.05em;}.cls-11{letter-spacing:-0.01em;}.cls-12{letter-spacing:-0.02em;}</style><linearGradient id="Nueva_muestra_de_degradado_1" x1="1.97" y1="144.11" x2="197" y2="144.11" gradientUnits="userSpaceOnUse"><stop offset="0" stop-color="#5a54ff"/><stop offset="0.07" stop-color="#5a60ff"/><stop offset="0.22" stop-color="#5a73ff"/><stop offset="0.37" stop-color="#5a7dff"/><stop offset="0.53" stop-color="#5a81ff"/><stop offset="0.68" stop-color="#5a7eff"/><stop offset="0.81" stop-color="#5a73ff"/><stop offset="0.93" stop-color="#5a62ff"/><stop offset="1" stop-color="#5a54ff"/></linearGradient><linearGradient id="Degradado_sin_nombre_118" x1="132.46" y1="83.46" x2="217.72" y2="-1.79" gradientUnits="userSpaceOnUse"><stop offset="0" stop-color="#ff0"/><stop offset="0.26" stop-color="#fffd00"/><stop offset="0.4" stop-color="#fff500"/><stop offset="0.52" stop-color="#ffe700"/><stop offset="0.62" stop-color="#ffd300"/><stop offset="0.71" stop-color="#ffba00"/><stop offset="0.8" stop-color="#ff9a00"/><stop offset="0.88" stop-color="#ff7500"/><stop offset="0.95" stop-color="#ff4b00"/><stop offset="1" stop-color="#ff2a00"/></linearGradient><linearGradient id="Degradado_sin_nombre_40" x1="29.95" y1="96.07" x2="104.95" y2="21.07" gradientUnits="userSpaceOnUse"><stop offset="0.24" stop-color="#ff2a00"/><stop offset="0.25" stop-color="#ff2e00"/><stop offset="0.29" stop-color="#ff5900"/><stop offset="0.33" stop-color="#ff8000"/><stop offset="0.38" stop-color="#ffa300"/><stop offset="0.44" stop-color="#ffc000"/><stop offset="0.5" stop-color="gold"/><stop offset="0.57" stop-color="#ffe900"/><stop offset="0.65" stop-color="#fff600"/><stop offset="0.76" stop-color="#fffd00"/><stop offset="1" stop-color="#ff0"/></linearGradient><linearGradient id="Degradado_sin_nombre_78" x1="107.02" y1="84.69" x2="198.01" y2="30.02" gradientUnits="userSpaceOnUse"><stop offset="0.1" stop-color="#ff2a00"/><stop offset="0.12" stop-color="#ff3c00"/><stop offset="0.23" stop-color="#ff8100"/><stop offset="0.33" stop-color="#ffb700"/><stop offset="0.42" stop-color="#ffde00"/><stop offset="0.49" stop-color="#fff600"/><stop offset="0.53" stop-color="#ff0"/><stop offset="0.6" stop-color="#ffce00"/><stop offset="0.72" stop-color="#ff8900"/><stop offset="0.82" stop-color="#f50"/><stop offset="0.9" stop-color="#ff3600"/><stop offset="0.94" stop-color="#ff2a00"/></linearGradient><linearGradient id="Nueva_muestra_de_degradado_1-2" x1="104.57" y1="101.75" x2="178.5" y2="101.75" xlink:href="#Nueva_muestra_de_degradado_1"/><linearGradient id="Nueva_muestra_de_degradado_1-3" x1="178.5" y1="110.85" x2="248.5" y2="110.85" xlink:href="#Nueva_muestra_de_degradado_1"/></defs><title>logo</title><g id="linea_inf"><path class="cls-1" d="M19.37,103.28c-5.5,8.27-33.62,53.54-4.18,75.06h0c.07,0,66.49,36.34,181.79-61,.3-.25-2.45,1.91-2.77,2.13C170.45,136,78.88,195.85,31.44,169.06h0c-.25-.06-37.83-9.32-11.84-65.63A.13.13,0,0,0,19.37,103.28Z" transform="translate(-1.97 -1.7)"/></g><g id="linea_sup"><path class="cls-2" d="M227.86,78s27.37-53-26.36-64c0,0-46.63-10-111.5,27V36S147.78-2,202.52,2C202.52,2,275.5,8,227.86,78Z" transform="translate(-1.97 -1.7)"/></g><g id="M"><path class="cls-3" d="M22,118s13-45-5-71L45,35V45L66,35V45L89,35s14,52-21,85c0,0,11-41,0-61,0,0,5,33-24,61,0,0,10-36,2-59C46,61,47,101,22,118Z" transform="translate(-1.97 -1.7)"/></g><g id="a"><path class="cls-4" d="M192,38l9-3H177l4,2s-14,6-11,17H156s12,7,2,17c0,0-28-18,9-34,0,0-18-5-32,12,0,0,0-5-8-14,0,0-10,3-15,8l4,2s-9,7-11,11c0,0-6-2-7-1s-2,9-2,9l5,1-1,8,13,3V65l14-7,2,17s4-3,6-15c0,0,4,18,29,16l2-2-3-1s11-2,10-6c0,0,4,7,11,6l-6,3,11-2,3-1S223,56,192,38ZM117,56s2-7,4-8,7,6,7,6C118,58,117,56,117,56Zm71,13c-14-17,0-28,0-28C199,56,188,69,188,69Z" transform="translate(-1.97 -1.7)"/><path class="cls-5" d="M192.5,37.5l9-3h-24l4,2s-14,6-11,17h-14s12,7,2,17c0,0-28-18,9-34,0,0-18-5-32,12,0,0,0-5-8-14,0,0-10,3-15,8l4,2s-9,7-11,11c0,0-6-2-7-1s-2,9-2,9l5,1-1,8,13,3v-11l14-7,2,17s4-3,6-15c0,0,4,18,29,16l2-2-3-1s11-2,10-6c0,0,4,7,11,6l-6,3,11-2,3-1S223.5,55.5,192.5,37.5Zm-75,18s2-7,4-8,7,6,7,6C118.5,57.5,117.5,55.5,117.5,55.5Zm71,13c-14-17,0-28,0-28C199.5,55.5,188.5,68.5,188.5,68.5Z" transform="translate(-1.97 -1.7)"/></g><g id="a-2" data-name="a"><path class="cls-6" d="M178.5,86.5c-11,4-24,0-24,0l3,5c-3,1-3,6-3,6-11.47,3.13-13.42,9.79-12.67,15.45l-.33-.45c-21,10-25-4-25-4-4-17,22-13,22-13-5-21-23-15-23-15,12,2,13,8,13,8-31-1-23,23-23,23,10,22,37,6,37,6l.42-.21a26,26,0,0,0,2.58,5.21c11,5,15-6,15-6l-2,1c-10,7-9-9-9-9l15,8-3,4h17v-2C169.5,103.5,178.5,86.5,178.5,86.5Zm-13,19-9-4,9-4Z" transform="translate(-1.97 -1.7)"/></g><g id="r"><path class="cls-7" d="M210.5,107.5l-2-1s15-12,0-21c0,0-3,0-3,2h-16l-2,3-1-3s-7-1-7,0v1l3,3v23l-4,6v1l18,1s1-1,0-3l-1-4,5,2s21,30,48,14C248.5,131.5,210.5,135.5,210.5,107.5Zm-8-6s-7,6-7,7v-13C210.5,94.5,202.5,101.5,202.5,101.5Z" transform="translate(-1.97 -1.7)"/></g><g id="texto"><text class="cls-8" transform="translate(24.16 137.38)">IMPO<tspan class="cls-9" x="29.29" y="0">R</tspan><tspan class="cls-10" x="37.12" y="0">T</tspan><tspan x="42.56" y="0">ADORA DE</tspan><tspan class="cls-11" x="-9.81" y="13.4">L</tspan><tspan x="-3.65" y="13.4">UJOS Y </tspan><tspan class="cls-12" x="37.75" y="13.4">A</tspan><tspan x="45.04" y="13.4">CCESORIOS</tspan></text></g></svg>